<?xml version="1.0" encoding="UTF-8"?>
<svg width="500px" height="460px" viewBox="0 0 500 460" version="1.1" xmlns="http://www.w3.org/2000/svg" xmlns:xlink="http://www.w3.org/1999/xlink">
    <!-- Generator: Sketch 61.2 (89653) - https://sketch.com -->
    <title>Persistent Logo/SVG (Screen)/Logo Vertical/Persistent_Logo_Vertical_Default</title>
    <desc>Created with Sketch.</desc>
    <g id="Logo-Vertical/Persistent_Logo_Vertical_Default" stroke="none" stroke-width="1" fill="none" fill-rule="evenodd">
        <g id="Logo-Elements/Persistent_Logo_Wordmark" transform="translate(0.000000, 375.000000)" fill="#4D4D4D">
            <path d="M88.0816106,24.5722857 C105.170219,24.5722857 116.982778,37.0308571 116.982778,54.7459365 C116.982778,56.6887937 116.867698,58.1742698 116.752619,58.8596667 L75.1209664,58.8596667 C75.6950093,65.4883175 81.7725537,70.2901429 88.7693791,70.2901429 C94.9620028,70.2901429 98.2884734,67.6605397 100.925822,63.432127 L115.033198,69.0326825 C110.33119,78.2895873 101.15598,84.0048254 88.7693791,84.0048254 C71.1067274,84.0048254 58.7214799,71.775619 58.7214799,54.2885556 C58.7214799,37.2602222 71.3368861,24.5722857 88.0816106,24.5722857 Z M186.874944,24.5726905 C196.624197,24.5726905 205.798053,29.8291984 209.353329,37.7166587 L195.70627,44.917373 C193.985495,40.6876111 190.200061,37.9446746 186.759865,37.9446746 C183.663553,37.9446746 181.485168,39.5448333 181.485168,41.8303889 C181.485168,43.8879286 183.090864,45.3734048 186.187176,46.1734841 L193.297726,48.0030079 C203.963553,50.7459444 209.697213,56.6891984 209.697213,64.6899921 C209.697213,76.0044365 200.064393,84.0052302 186.874944,84.0052302 C175.635075,84.0052302 166.690023,78.8620556 162.904589,70.1758651 L176.437923,62.7457857 C178.502582,67.4329286 182.746979,70.403881 186.990023,70.403881 C190.545299,70.403881 192.953842,68.8037222 192.953842,66.0607857 C192.953842,64.1179286 191.233067,62.6311032 187.792871,61.832373 L181.141284,60.2322143 C170.475458,57.7172937 164.969248,51.7740397 164.969248,42.8598333 C164.969248,32.1161032 173.915654,24.5726905 186.874944,24.5726905 Z M264.942213,24.5726905 C274.691466,24.5726905 283.866676,29.8291984 287.421951,37.7166587 L273.773539,44.917373 C272.054118,40.6876111 268.268683,37.9446746 264.827134,37.9446746 C261.730822,37.9446746 259.552437,39.5448333 259.552437,41.8303889 C259.552437,43.8879286 261.158133,45.3734048 264.254444,46.1734841 L271.364995,48.0030079 C282.032176,50.7459444 287.765836,56.6891984 287.765836,64.6899921 C287.765836,76.0044365 278.131662,84.0052302 264.942213,84.0052302 C253.703697,84.0052302 244.757292,78.8620556 240.973212,70.1758651 L254.506545,62.7457857 C256.571204,67.4329286 260.814248,70.403881 265.057292,70.403881 C268.612568,70.403881 271.021111,68.8037222 271.021111,66.0607857 C271.021111,64.1179286 269.300336,62.6311032 265.86014,61.832373 L259.208553,60.2322143 C248.542726,57.7172937 243.036517,51.7740397 243.036517,42.8598333 C243.036517,32.1161032 251.982923,24.5726905 264.942213,24.5726905 Z M363.002694,24.5722857 C380.089949,24.5722857 391.902507,37.0308571 391.902507,54.7459365 C391.902507,56.6887937 391.788782,58.1742698 391.673702,58.8596667 L350.042049,58.8596667 C350.616092,65.4883175 356.694991,70.2901429 363.690462,70.2901429 C369.883086,70.2901429 373.209556,67.6605397 375.846905,63.432127 L389.954281,69.0326825 C385.252274,78.2895873 376.077063,84.0048254 363.690462,84.0048254 C346.02781,84.0048254 333.642563,71.775619 333.642563,54.2885556 C333.642563,37.2602222 346.257969,24.5722857 363.002694,24.5722857 Z M315.601368,9.48626984 L315.601368,26.0585714 L329.937549,26.0585714 L329.937549,39.773254 L315.601368,39.773254 L315.601368,60.4606349 C315.601368,66.5185714 318.24007,68.9174603 323.744925,68.9174603 C325.809585,68.9174603 328.101695,68.346746 329.937549,67.2039683 L329.937549,81.6053968 C327.41528,82.8615079 323.629846,83.8896032 318.24007,83.8896032 C306.311078,83.8896032 298.971723,76.5755556 298.971723,64.0036508 L298.971723,39.773254 L290.943245,39.773254 L290.943245,26.0585714 L298.971723,26.0585714 L298.971723,9.48626984 L315.601368,9.48626984 Z M484.035182,9.48626984 L484.035182,26.0585714 L498.370009,26.0585714 L498.370009,39.773254 L484.035182,39.773254 L484.035182,60.4606349 C484.035182,66.5185714 486.67253,68.9174603 492.178739,68.9174603 C494.242045,68.9174603 496.535509,68.346746 498.370009,67.2039683 L498.370009,81.6053968 C495.84774,82.8615079 492.062306,83.8896032 486.67253,83.8896032 C474.744893,83.8896032 467.404183,76.5755556 467.404183,64.0036508 L467.404183,39.773254 L459.377059,39.773254 L459.377059,26.0585714 L467.404183,26.0585714 L467.404183,9.48626984 L484.035182,9.48626984 Z M27.29669,2.51492063 C44.729183,2.51492063 56.7705462,11.8865079 56.7705462,28.344127 C56.7705462,44.6884127 44.729183,54.1746825 27.29669,54.1746825 L17.2035528,54.1746825 L17.2035528,82.5188095 L-0.000135387488,82.5188095 L-0.000135387488,2.51492063 L27.29669,2.51492063 Z M157.91556,24.8011111 C159.177372,24.8011111 160.439183,25.029127 160.783067,25.1438095 L160.783067,42.2881746 C159.86514,41.8307937 158.259444,41.6027778 156.538669,41.6027778 C147.249734,41.6027778 141.744879,48.4594444 141.744879,59.545873 L141.744879,82.5188095 L125.115233,82.5188095 L125.115233,26.0585714 L141.629799,26.0585714 L141.629799,35.3168254 C144.612386,28.8015079 150.574851,24.8011111 157.91556,24.8011111 Z M433.525766,24.5729603 C446.485056,24.5729603 454.399809,33.3724841 454.399809,47.6605794 L454.399809,82.5186746 L437.65373,82.5186746 L437.65373,51.5449444 C437.65373,44.1175635 433.984729,39.8878016 427.446867,39.8878016 C421.024085,39.8878016 416.781041,44.6882778 416.781041,52.5743889 L416.781041,82.5186746 L400.036317,82.5186746 L400.036317,26.0584365 L416.781041,26.0584365 L416.781041,33.2591508 C420.222591,27.7732778 425.956251,24.5729603 433.525766,24.5729603 Z M234.219001,26.0578968 L234.219001,82.5181349 L217.474276,82.5181349 L217.474276,26.0578968 L234.219001,26.0578968 Z M87.9665313,37.6029206 C81.314944,37.6029206 75.9238142,42.6314127 75.2360458,48.0026032 L100.581937,48.0026032 C99.894169,41.9460159 94.7331979,37.6029206 87.9665313,37.6029206 Z M362.887614,37.6029206 C356.236027,37.6029206 350.844897,42.6314127 350.157129,48.0026032 L375.503021,48.0026032 C374.815252,41.9460159 369.654281,37.6029206 362.887614,37.6029206 Z M27.6392204,17.9444444 L17.2035528,17.9444444 L17.2035528,38.9731746 L27.6392204,38.9731746 C34.5209664,38.9731746 39.4531326,35.0874603 39.4531326,28.4588095 C39.4531326,21.8301587 34.5209664,17.9444444 27.6392204,17.9444444 Z M225.846639,-0.000674603175 C231.236415,-0.000674603175 235.594538,4.45710317 235.594538,9.71361111 C235.594538,14.9714683 231.236415,19.429246 225.846639,19.429246 C220.455509,19.429246 216.098739,14.9714683 216.098739,9.71361111 C216.098739,4.45710317 220.455509,-0.000674603175 225.846639,-0.000674603175 Z" id="Persistent"></path>
        </g>
        <g id="Logo-Elements/Persistent_Logo_Infinity" transform="translate(86.000000, 0.000000)" fill="#FD5F07">
            <path d="M319.08535,56.2798433 C315.484251,45.3519415 309.708669,35.1736998 302.098669,26.7546604 C294.517699,18.317058 285.261285,11.5358473 275.0925,6.94507194 C254.738342,-2.34642898 230.850822,-2.27074901 210.712315,6.906518 C190.519896,15.9809745 174.57,33.9199826 167.323565,55.1260807 C165.512648,60.4236785 164.236712,65.9111901 163.520639,71.467242 C162.754801,76.9690329 162.758948,82.80353 162.848803,87.9511957 L163.133573,119.705368 L163.613259,183.216568 L163.784674,214.97074 C163.805409,220.264054 163.747349,225.55594 163.82891,230.847826 C163.85794,233.475206 163.947794,236.185405 163.931206,238.742817 C163.964383,241.298801 163.787438,243.840506 163.737673,246.402201 C163.412813,251.499889 162.850185,256.62328 161.781605,261.682415 C160.746203,266.750117 159.0832,271.697873 156.959865,276.431441 C152.692459,285.887153 146.662519,294.637471 139.059431,301.734253 C123.811784,315.835001 102.937851,323.522944 82.4634262,321.732327 C72.2407287,321.034072 62.1604163,318.106828 53.0947706,313.184775 C44.0097715,308.278428 36.0140877,301.308731 29.6496118,293.03534 C26.4521677,288.90864 23.6376427,284.472081 21.2323021,279.812765 C18.8255792,275.159161 16.7934811,270.282801 15.3848362,265.216527 C12.3380715,255.149663 11.6358226,244.421671 13.0223494,234.209159 C13.7826582,229.092907 14.9659752,224.046624 16.5446527,219.184543 C18.1896845,214.339597 20.2245474,209.687421 22.6022404,205.319402 C24.9453739,200.93282 27.7198098,196.878944 30.7389269,193.16063 C33.7082784,189.406618 37.0176953,186.011015 40.6671776,183.123753 C54.9347179,171.187737 73.8608776,166.055778 93.204516,165.984382 C113.22552,166.014368 133.245142,166.318516 153.270294,166.199998 L153.11685,144.509834 C133.182935,144.949635 113.239344,146.329009 93.3081945,147.832613 C82.1938621,148.679372 71.2136206,151.439549 60.8969213,155.868969 C55.7309686,158.047981 50.8262856,160.839572 46.1731957,163.909608 C41.5422239,167.023911 37.1421095,170.472347 33.2258279,174.419128 C29.2362803,178.281663 25.7374774,182.626835 22.6202113,187.191908 C19.4891214,191.752697 16.7533921,196.586219 14.5388199,201.656777 C9.91475996,211.723641 6.95232038,222.500183 5.75379723,233.679399 C4.64789351,244.962854 5.34875999,256.52761 7.92275089,267.748236 C10.5409779,278.966006 15.1857736,289.819656 21.7506945,299.642344 C28.332204,309.425051 36.8918988,318.212495 47.1270376,324.906602 C57.345588,331.587858 69.1939639,336.080107 81.3146687,337.902138 C82.8325215,338.184867 84.3462272,338.330515 85.8668448,338.494726 C87.3833153,338.663221 88.9053153,338.827432 90.5033462,338.875982 C92.0875533,338.964513 93.6717603,339.024486 95.2532026,338.990216 C96.8401745,339 98.4257639,338.957373 100.004441,338.840284 C106.34127,338.49187 112.638009,337.386657 118.748127,335.60318 C124.862392,333.839694 130.816301,331.447922 136.508941,328.484979 C142.208492,325.523465 147.559684,321.86084 152.59431,317.764127 C162.561268,309.422195 170.761544,298.811293 176.844014,287.026636 C177.627823,285.564442 178.341131,284.065122 179.01435,282.545811 C179.713834,281.036496 180.345582,279.500049 180.933093,277.942184 C182.185529,274.862153 183.200196,271.67931 184.040683,268.462198 C185.774187,262.03654 186.853825,255.472374 187.57681,248.921059 C187.831168,245.636834 188.158792,242.361176 188.251411,239.082663 L188.411767,234.818882 L188.612212,230.847826 L189.351785,214.97074 L190.052652,183.216568 L191.399089,119.705368 L192.047425,87.9511957 L192.112397,83.9815672 L192.133133,83.0319978 L192.17184,82.3680132 L192.238194,81.038616 C192.351549,79.2722742 192.553376,77.5216394 192.831235,75.7924236 C193.413217,72.3397035 194.21085,68.9412446 195.405226,65.6784385 C197.774624,59.1471145 201.497373,53.1669691 206.078579,48.0007404 C210.706786,42.865926 216.362101,38.7078115 222.574515,35.9105086 C228.797988,33.1203453 235.552295,31.7052727 242.453134,31.6924213 C249.345679,31.5767595 256.173252,32.9247197 262.533581,35.677757 C268.88838,38.4236547 274.763494,42.5703457 279.611499,47.802259 C284.423563,53.0613027 288.319109,59.2713439 290.80601,66.1025319 C293.308117,72.9108731 294.431992,80.3660639 294.07119,87.8441014 C293.740802,95.2821571 291.949238,102.6531 288.707557,109.435739 C285.447906,116.184107 280.847347,122.407 275.080059,127.280504 C269.332124,132.161148 262.604083,135.830913 255.396355,137.90997 C251.800786,138.982341 248.087714,139.710582 244.299994,140.023297 L242.876143,140.113256 C242.35775,140.140387 242.032891,140.191792 241.314054,140.20036 L237.471038,140.307454 L229.785007,140.518787 L201.157307,141.308429 L200.629238,166.245692 L229.785007,166.642655 L237.471038,166.746893 L241.314054,166.799726 L245.429398,166.761173 C250.979652,166.586966 256.525759,165.817315 261.947452,164.480778 C272.812956,161.863393 283.160068,156.808543 292.046004,149.756027 C300.973412,142.742064 308.280671,133.620486 313.642921,123.469375 C324.396453,103.074338 326.356667,78.1542097 319.08535,56.2798433" id="Swoosh"></path>
        </g>
    </g>
</svg>